# 3ds Max Wavefront OBJ Exporter v0.97b - (c)2007 guruware
# File Created: 05.11.2014 21:22:17

#
# object 2
#

v  0.7274 0.0122 -0.5000
v  0.5000 0.0122 -0.5000
v  0.5000 0.0122 0.5000
v  0.7274 0.0122 0.5000
# 4 vertices

vn 0.0000 1.0000 -0.0000
# 1 vertex normals

vt 0.0000 0.5000 0.0000
# 1 texture coords

g 2
s off
f 1/1/1 2/1/1 3/1/1 4/1/1 
# 1 polygons

#
# object 3
#

v  0.7274 0.0122 0.7274
v  0.7274 0.0122 0.5000
v  0.5000 0.0122 0.5000
v  0.5000 0.0122 0.7274
# 4 vertices

vn 0.0000 1.0000 -0.0000
# 1 vertex normals

vt 0.0000 1.0000 0.0000
vt 0.0000 0.5000 0.0000
vt 0.5000 1.0000 0.0000
# 3 texture coords

g 3
s off
f 5/2/2 6/3/2 7/4/2 8/4/2 
# 1 polygons

#
# object 1
#

v  0.7274 0.0122 -0.7274
v  0.5000 0.0122 -0.7274
v  0.5000 0.0122 -0.5000
v  0.7274 0.0122 -0.5000
# 4 vertices

vn 0.0000 1.0000 -0.0000
# 1 vertex normals

vt 0.0000 1.0000 0.0000
vt 0.5000 1.0000 0.0000
vt 0.0000 0.5000 0.0000
# 3 texture coords

g 1
s off
f 9/5/3 10/6/3 11/6/3 12/7/3 
# 1 polygons

#
# object 7
#

v  -0.7274 0.0122 -0.7274
v  -0.7274 0.0122 -0.5000
v  -0.5000 0.0122 -0.5000
v  -0.5000 0.0122 -0.7274
# 4 vertices

vn 0.0000 1.0000 -0.0000
# 1 vertex normals

vt 0.0000 1.0000 0.0000
vt 0.0000 0.5000 0.0000
vt 0.5000 1.0000 0.0000
# 3 texture coords

g 7
s off
f 13/8/4 14/9/4 15/10/4 16/10/4 
# 1 polygons

#
# object 5
#

v  -0.7274 0.0122 0.7274
v  -0.5000 0.0122 0.7274
v  -0.5000 0.0122 0.5000
v  -0.7274 0.0122 0.5000
# 4 vertices

vn 0.0000 1.0000 -0.0000
# 1 vertex normals

vt 0.0000 1.0000 0.0000
vt 0.5000 1.0000 0.0000
vt 0.0000 0.5000 0.0000
# 3 texture coords

g 5
s off
f 17/11/5 18/12/5 19/12/5 20/13/5 
# 1 polygons

#
# object 6
#

v  -0.7274 0.0122 0.5000
v  -0.5000 0.0122 0.5000
v  -0.5000 0.0122 -0.5000
v  -0.7274 0.0122 -0.5000
# 4 vertices

vn 0.0000 1.0000 -0.0000
# 1 vertex normals

vt 0.0000 0.5000 0.0000
# 1 texture coords

g 6
s off
f 21/14/6 22/14/6 23/14/6 24/14/6 
# 1 polygons

#
# object 4
#

v  0.5000 0.0122 0.7274
v  0.5000 0.0122 0.5000
v  -0.5000 0.0122 0.5000
v  -0.5000 0.0122 0.7274
# 4 vertices

vn 0.0000 1.0000 -0.0000
# 1 vertex normals

vt 0.5000 1.0000 0.0000
# 1 texture coords

g 4
s off
f 25/15/7 26/15/7 27/15/7 28/15/7 
# 1 polygons

#
# object 8
#

v  -0.5000 0.0122 -0.7274
v  -0.5000 0.0122 -0.5000
v  0.5000 0.0122 -0.5000
v  0.5000 0.0122 -0.7274
# 4 vertices

vn 0.0000 1.0000 -0.0000
# 1 vertex normals

vt 0.5000 1.0000 0.0000
# 1 texture coords

g 8
s off
f 29/16/8 30/16/8 31/16/8 32/16/8 
# 1 polygons

