# 3ds Max Wavefront OBJ Exporter v0.97b - (c)2007 guruware
# File Created: 14.11.2014 20:48:13

#
# object tileMesh002
#

v  -0.4998 0.0201 0.1009
v  -0.4998 0.0201 0.4998
v  -0.2703 0.1278 0.2703
v  -0.2703 0.1278 0.1082
v  -0.4998 0.0201 -0.1009
v  -0.2703 0.1278 -0.1082
v  -0.2703 0.1278 -0.2703
v  -0.4998 0.0201 -0.4998
v  0.4998 0.0201 0.1009
v  0.2703 0.1278 0.1082
v  0.2703 0.1278 0.2703
v  0.4998 0.0201 0.4998
v  0.4998 0.0201 -0.1009
v  0.4998 0.0201 -0.4998
v  0.2703 0.1278 -0.2703
v  0.2703 0.1278 -0.1082
v  -0.0999 0.0201 -0.4998
v  -0.1079 0.1278 -0.2703
v  0.0999 0.0201 -0.4998
v  0.1079 0.1278 -0.2703
v  -0.0999 0.0201 0.4998
v  -0.1079 0.1278 0.2703
v  0.0999 0.0201 0.4998
v  0.1079 0.1278 0.2703
v  -0.4973 0.0201 0.1004
v  -0.2689 0.1267 0.1077
v  -0.2689 0.1267 0.2689
v  -0.4973 0.0201 0.4973
v  -0.4973 0.0201 -0.1004
v  -0.4973 0.0201 -0.4973
v  -0.2689 0.1267 -0.2689
v  -0.2689 0.1267 -0.1077
v  0.4973 0.0201 0.1004
v  0.4973 0.0201 0.4973
v  0.2689 0.1267 0.2689
v  0.2689 0.1267 0.1077
v  0.4973 0.0201 -0.1004
v  0.2689 0.1267 -0.1077
v  0.2689 0.1267 -0.2689
v  0.4973 0.0201 -0.4973
v  -0.0994 0.0201 -0.4973
v  -0.1073 0.1267 -0.2689
v  0.0994 0.0201 -0.4973
v  0.1073 0.1267 -0.2689
v  -0.0994 0.0201 0.4973
v  -0.1073 0.1267 0.2689
v  0.0994 0.0201 0.4973
v  0.1073 0.1267 0.2689
# 48 vertices

vn -0.4427 0.8967 -0.0000
vn -0.4427 0.8967 0.0000
vn 0.4427 0.8967 -0.0000
vn 0.4427 0.8967 0.0000
vn 0.0000 0.8967 -0.4427
vn -0.0000 0.8967 -0.4427
vn -0.0000 0.8967 0.4427
vn 0.0000 0.8967 0.4427
vn 0.4407 -0.8977 0.0000
vn 0.4407 -0.8977 -0.0000
vn -0.4407 -0.8977 -0.0000
vn -0.4407 -0.8977 0.0000
vn -0.0000 -0.8977 0.4407
vn 0.0000 -0.8977 0.4407
vn 0.0000 -0.8977 -0.4407
vn -0.0000 -0.8977 -0.4407
# 16 vertex normals

vt 0.5063 0.1944 0.0000
vt 1.0000 0.1944 0.0000
vt 1.0000 0.9412 0.0000
vt 0.5063 0.9412 0.0000
# 4 texture coords

g tileMesh002
s 32
f 1/1/1 2/2/2 3/3/1 4/4/1 
f 5/1/2 6/4/2 7/3/2 8/2/1 
f 9/1/3 10/4/3 11/3/3 12/2/4 
f 13/1/4 14/2/3 15/3/4 16/4/4 
f 17/1/5 8/2/6 7/3/5 18/4/5 
f 19/1/5 20/4/5 15/3/5 14/2/5 
f 21/1/7 22/4/7 3/3/7 2/2/7 
f 23/1/7 12/2/8 11/3/7 24/4/7 
f 25/1/9 26/4/9 27/3/9 28/2/10 
f 29/1/9 30/2/10 31/3/9 32/4/9 
f 33/1/11 34/2/12 35/3/11 36/4/11 
f 37/1/11 38/4/11 39/3/11 40/2/12 
f 41/1/13 42/4/13 31/3/13 30/2/14 
f 43/1/13 40/2/13 39/3/13 44/4/13 
f 45/1/15 28/2/15 27/3/15 46/4/15 
f 47/1/15 48/4/15 35/3/15 34/2/16 
# 16 polygons

